<svg id="Layer_1" viewBox="0 0 512 512" xmlns="http://www.w3.org/2000/svg" data-name="Layer 1"><g fill-rule="evenodd"><path d="m113.93 296.264c-3.86 0-7-3.149-7-6.999v-112.68c0-3.85 3.14-7 7-7s7 3.15 7 7v112.68c0 3.85-3.15 7-7 7zm65.65-20.721c-3.859 0-7-3.119-7-6.969v-91.99c0-3.85 3.14-7 7-7s7 3.15 7 7v91.99c0 3.85-3.15 6.97-7 6.97z" fill="#052f81"/><path d="m383.811 221.004c-58.45 0-105.981-47.559-105.981-106.019.001-6.23.53-12.44 1.61-18.53h-39.258c-4.082 3.959-14.002 13.09-29.052 13.09-10.01 0-19.36-3.77-26.42-10.32-3.37 5.56-8.11 10.27-13.83 13.55v26.99c0 3.88-3.15 7-7.01 7-3.88 0-7-3.12-7-7v-31.29c.001-2.81 1.67-5.33 4.25-6.44 7.661-3.261 13.16-10.06 14.72-18.2.561-2.92 2.92-5.19 5.89-5.61 2.951-.401 5.84 1.08 7.2 3.74 4.31 8.359 12.81 13.58 22.2 13.58 9.92 0 16.55-6.46 19.73-9.55 1.78-1.761 3.62-3.55 6.74-3.55h50.57c2.192 0 4.23 1 5.56 2.72 1.3 1.729 1.76 3.97 1.19 6.07-2.038 7.709-3.09 15.7-3.09 23.75 0 50.749 41.27 92.02 91.98 92.02 50.741 0 92.02-41.27 92.02-92.02.001-50.71-41.28-91.98-92.02-91.98-30.979 0-59.69 15.45-76.82 41.39-1.668 2.519-4.81 3.71-7.73 2.86-.679-.2-1.39-.28-2.1-.28h-55.929c-2.979 0-5.611-1.87-6.601-4.65-2.748-7.801-9.16-13.69-17.12-15.79-2.44-.65-4.34-2.55-4.99-4.99-2.868-10.91-12.79-18.54-24.1-18.54-13.598 0-24.77 11.06-24.91 24.66-.028 2.04-.94 3.97-2.5 5.27-1.558 1.34-3.6 1.9-5.61 1.56-1.33-.191-2.7-.31-4.03-.31-13.749 0-24.91 11.17-24.91 24.92 0 6.999 2.8 13.46 7.93 18.25 1.451 1.31 2.24 3.18 2.24 5.11v37.299c0 3.88-3.12 7-7 7-3.849 0-7-3.12-7-7v-34.411c-6.489-7.149-10.18-16.559-10.18-26.249 0-21.12 16.87-38.33 37.85-38.89 3.601-17.78 19.38-31.21 38.12-31.21 16.331 0 30.79 10.17 36.43 25.2 9.102 3.399 16.58 10.12 20.97 18.76h51.341.709c19.921-27.611 51.73-43.96 85.94-43.96 58.451 0 106.02 47.53 106.02 105.98 0 58.46-47.57 106.02-106.02 106.02z" fill="#f2535f"/><g fill="#052f81"><path d="m201.72 183.584h-109.93c-3.86 0-7-3.109-7-6.999v-36.821c0-3.86 3.14-6.999 7-6.999h109.931c3.85 0 6.97 3.14 6.97 7v36.82c.001 3.89-3.12 7-6.97 7zm-102.931-14h95.922v-22.821h-95.922z"/><path d="m250.332 502.995h-221.162c-3.85 0-7-3.149-7-7v-180c0-3.06 1.98-5.75 4.9-6.69l221.16-69.73c2.131-.68 4.42-.29 6.24 1.02 1.782 1.33 2.86 3.43 2.86 5.67l.002 249.73c0 3.85-3.142 7-7.002 7zm-214.162-14h207.16v-233.21l-207.16 65.34z"/><path d="m318.311 376.514c-2.099 0-4.091-.939-5.421-2.549l-22.249-27.21c-2.47-2.98-2.011-7.399.96-9.839 3.012-2.47 7.4-2.01 9.87.96l9.83 12.05v-105.28c0-3.851 3.12-7 7.01-7 3.88 0 7 3.15 7 7v105.28s9.831-12.05 9.831-12.05c2.471-2.97 6.859-3.43 9.869-.959 2.972 2.439 3.43 6.86.96 9.84l-22.25 27.21c-1.33 1.61-3.32 2.55-5.41 2.55h.001z"/><path d="m440.731 376.514c-2.09 0-4.081-.939-5.381-2.549l-22.28-27.21c-2.439-2.98-2.02-7.399.96-9.839 3.011-2.47 7.43-2.01 9.87.96l9.832 12.05v-105.28c0-3.851 3.148-7 6.998-7 3.892 0 7.01 3.15 7.01 7v105.28s9.862-12.05 9.862-12.05c2.439-2.97 6.858-3.43 9.838-.959 3.001 2.439 3.43 6.86.99 9.84l-22.249 27.21c-1.341 1.61-3.351 2.55-5.451 2.55h.001z"/><path d="m379.531 443.635c-2.09 0-4.111-.93-5.441-2.55l-22.249-27.211c-2.439-2.98-2.011-7.399.99-9.839 2.982-2.461 7.4-2.01 9.84.97l9.862 12.039v-105.27c0-3.86 3.118-7.01 6.998-7.01 3.86 0 7.01 3.15 7.01 7.01v105.269s9.831-12.04 9.831-12.04c2.471-2.98 6.86-3.4 9.869-.97 2.972 2.439 3.43 6.86.961 9.84l-22.249 27.21c-1.33 1.62-3.322 2.551-5.422 2.551h.001z"/><path d="m198.402 375.775h-117.302c-3.88 0-7.001-3.14-7.001-7v-30.02c0-3.85 3.12-7 7-7h117.302c3.879 0 6.998 3.15 6.998 7l.002 30.019c0 3.861-3.122 7.001-7.002 7.001h.002zm-110.302-14.001h103.3v-16.02h-103.3z"/><path d="m198.402 438.025h-117.302c-3.88 0-7.001-3.15-7.001-7v-30.021c0-3.85 3.12-6.969 7-6.969l117.302-.031c3.879 0 6.998 3.151 6.998 7l.002 30.02c0 3.85-3.122 7-7.002 7h.002zm-110.302-14.001h103.3v-16.02h-103.3z"/></g><path d="m334.41 142.655c-15.109 0-27.42-12.3-27.42-27.41.001-15.111 12.31-27.41 27.42-27.41 6.912 0 13.55 2.61 18.65 7.31 2.802 2.639 2.97 7.06.37 9.9-2.64 2.829-7.06 3-9.92.36-2.47-2.32-5.7-3.57-9.1-3.57-7.398-.001-13.41 6.01-13.41 13.41s6.01 13.41 13.41 13.41c3.57 0 6.91-1.39 9.44-3.91 2.741-2.731 7.2-2.7 9.92.02 2.721 2.749 2.72 7.18-.03 9.93-5.16 5.129-12.05 7.96-19.33 7.96z" fill="#f2535f"/><path d="m386.392 141.665c-14.571 0-26.442-11.85-26.442-26.42.002-14.571 11.87-26.45 26.44-26.45s26.45 11.88 26.45 26.45c0 14.569-11.88 26.45-26.45 26.42zm0-38.86c-6.86 0-12.442 5.58-12.442 12.44.001 6.859 5.58 12.44 12.44 12.44 6.862 0 12.45-5.58 12.45-12.44s-5.59-12.44-12.45-12.44z" fill="#f2535f"/><path d="m452.841 141.665h-31.689c-3.15 0-5.932-2.13-6.752-5.19-.819-3.061.51-6.26 3.26-7.85 2.921-1.7 7.57-5.36 12.47-9.18 2.211-1.761 4.54-3.58 6.95-5.42 4.56-3.49 6.86-7.17 6.15-9.83-.568-2.051-2.87-3.78-5.5-4.12-2.129-.28-5.13.26-7.4 4.26-1.899 3.339-6.18 4.53-9.52 2.6-3.38-1.89-4.57-6.18-2.67-9.52 4.65-8.14 12.62-12.33 21.35-11.22 8.27 1.04 15.22 6.83 17.26 14.37 1.081 3.989 2.13 14.42-11.17 24.57-1.1.849-2.18 1.7-3.29 2.55h10.551c3.85 0 6.999 3.12 6.999 7.01 0 3.849-3.15 7-7 6.97z" fill="#f2535f"/></g></svg>