<svg clip-rule="evenodd" fill-rule="evenodd" height="512" image-rendering="optimizeQuality" shape-rendering="geometricPrecision" text-rendering="geometricPrecision" viewBox="0 0 173.397 173.397" width="512" xmlns="http://www.w3.org/2000/svg"><g id="Layer_x0020_1"><g id="_301711072"><path id="_301712152" d="m86.6993 13.502c-40.3604 0-73.1973 32.8367-73.1973 73.1966.0003 40.3596 32.8366 73.1965 73.1966 73.1965 40.3603-.0003 73.1966-32.8366 73.1966-73.1965.0003-40.36-32.8368-73.1965-73.1959-73.1966zm0 149.735c-20.443 0-39.6644-7.9619-54.1227-22.4166-14.4542-14.4584-22.4166-33.6792-22.4166-54.122 0-20.443 7.962-39.6637 22.4166-54.1219 14.4587-14.455 33.6791-22.4167 54.122-22.4167 20.4429-.0003 39.6635 7.9619 54.122 22.4167 14.4548 14.458 22.4166 33.6756 22.4166 54.1219.0006 20.4426-7.962 39.6637-22.4166 54.122-14.4582 14.4545-33.6793 22.4166-54.1213 22.4166z"/><path id="_301712248" d="m86.6993 25.1578c-33.934 0-61.5415 27.6075-61.5415 61.5408.0003 33.9332 27.6075 61.5407 61.5408 61.5407 33.9332-.0003 61.5408-27.6074 61.5408-61.5407.0003-33.9333-27.6076-61.5407-61.5401-61.5408zm0 126.424c-35.7757 0-64.8836-29.1078-64.8836-64.8828 0-35.7783 29.1078-64.8829 64.8829-64.8829 35.7755-.0003 64.8828 29.1046 64.8828 64.8829.0007 35.7749-29.1079 64.883-64.8821 64.8828z"/><path id="_301712296" d="m41.1307 132.18c-.4277 0-.8567-.1635-1.1839-.4907-.6507-.651-.6511-1.7093 0-2.3639l89.3782-89.3746c.6549-.6545 1.7127-.6545 2.3637 0 .6552.651.6545 1.7094 0 2.3604l-89.3775 89.378c-.3243.327-.7525.491-1.1805.4908zm11.7952 9.6331c-.4246 0-.8533-.1635-1.1807-.4873-.6507-.6546-.6509-1.7128 0-2.3639l87.2161-87.2163c.6517-.6509 1.7095-.6508 2.3638.0002.6512.6543.6511 1.7093 0 2.3639l-87.2157 87.2158c-.3274.324-.7557.4876-1.1835.4876z"/><path id="_301712368" d="m56.6059 79.6033c-.105 0-.213-.0102-.321-.0311-.9049-.1742-1.4969-1.0515-1.3194-1.9601l4.3976-22.5387c.3134-1.605 1.7262-2.771 3.359-2.771l47.9529-.0004c1.6333 0 3.0461 1.1666 3.3596 2.7716l.6267 3.22c.1778.9087-.4144 1.7862-1.3196 1.9603-.905.1774-1.7826-.4143-1.9599-1.3195l-.6261-3.2238c-.011-.0454-.0355-.0661-.0808-.0661h-47.9521c-.0454 0-.0703.0209-.0807.0696l-4.3968 22.5384c-.1566.7974-.8566 1.351-1.6394 1.3508z"/><path id="_301712200" d="m48.4241 98.0896c-.9227 0-1.6712-.7484-1.6712-1.671l.0004-10.3051c0-5.4308 4.4176-9.8522 9.8521-9.8522h37.0983c.9259 0 1.6705.7486 1.6705 1.6712.0003.9224-.745 1.671-1.6712 1.671l-37.0971-.0002c-3.5892 0-6.5108 2.9211-6.5108 6.5105l.0007 10.3045c0 .9228-.7492 1.6715-1.6717 1.6713zm76.5495 0c-.9227 0-1.6717-.7484-1.6717-1.671l.0001-10.3051c0-3.5892-2.9209-6.51-6.5102-6.51l-1.6566-.0002c-.9227 0-1.6716-.7483-1.6716-1.6708 0-.9227.7485-1.6712 1.671-1.6712h1.6573c5.4346 0 9.8523 4.4214 9.8523 9.8525l.0003 10.3045c0 .9228-.7488 1.6715-1.6709 1.6713z"/><path id="_301711912" d="m65.6571 107.653h-19.5688c-2.5348 0-4.5957-2.061-4.5957-4.592v-3.7218c0-2.5309 2.0609-4.5916 4.5953-4.5916l29.1327-.0001c.9227 0 1.6708.7485 1.6708 1.671.0007.9225-.7486 1.6712-1.671 1.6712l-29.1321-.0002c-.6924 0-1.2536.5607-1.2536 1.25l.0003 3.7212c0 .6894.5602 1.2503 1.2529 1.2503h19.5692c.9227 0 1.6709.7484 1.6709 1.6709.0007.9226-.7485 1.6712-1.6709 1.6711zm61.6524 0h-40.2209c-.9227 0-1.6712-.7485-1.6712-1.6711.0004-.9225.7485-1.6709 1.671-1.6709h40.2211c.6894 0 1.253-.5605 1.253-1.25l.0003-3.7218c0-.6893-.5643-1.2495-1.2537-1.2495l-30.657-.0002c-.9228 0-1.6712-.7484-1.6712-1.671.0004-.9226.7484-1.6709 1.671-1.6709l30.6576-.0001c2.5341 0 4.595 2.061 4.595 4.592l.0007 3.7212c0 2.5313-2.0616 4.5924-4.5957 4.5923z"/><path id="_301712008" d="m115.33 88.8465h-7.0123c-.9219 0-1.671-.7483-1.671-1.671.0002-.9226.7485-1.671 1.671-1.671l7.0123-.0001c.9259 0 1.6705.7486 1.6705 1.6711.0002.9225-.7451 1.6712-1.6705 1.671z"/><path id="_301711696" d="m65.0798 88.8465h-7.0154c-.9228 0-1.6715-.7483-1.6715-1.671.0007-.9226.7484-1.671 1.6712-1.671l7.0157-.0001c.9219 0 1.6669.7486 1.6669 1.6711s-.7451 1.6712-1.6669 1.671z"/><path id="_301711960" d="m113.871 121.091c-4.4665 0-8.0977-3.631-8.0977-8.0977l.0006-7.0118c0-.9223.7478-1.6707 1.6705-1.6707.9231 0 1.6709.7484 1.6709 1.6709l.0002 7.0113c0 2.6253 2.1341 4.7559 4.7554 4.7559 2.6219 0 4.7557-2.1306 4.7557-4.7556l.0007-7.0118c0-.9223.7478-1.6707 1.6703-1.6707.9233 0 1.6713.7484 1.6713 1.6709l.0001 7.0113c0 4.4669-3.6313 8.0981-8.098 8.098z"/><path id="_301711576" d="m54.5693 118.741c-.4842 0-.9616-.2052-1.2921-.6056-1.1942-1.4487-1.8488-3.2726-1.8488-5.1421l.0005-7.0118c0-.9223.7481-1.6707 1.6706-1.6707.923 0 1.6711.7484 1.6711 1.6709l.0007 7.0113c0 1.0932.3858 2.1658 1.0854 3.0153.5854.7102.484 1.7651-.2262 2.3534-.3132.2539-.6894.3795-1.0612.3793z"/></g><path d="m86.6993 25.1578c-33.934 0-61.5415 27.6075-61.5415 61.5408.0001 15.9194 6.0763 30.4466 16.0313 41.3841l11.2253-11.2249c-.6428-1.1807-.986-2.5105-.986-3.8642l.0004-5.3405h-5.3405c-2.5348 0-4.5957-2.061-4.5957-4.592v-3.7218c0-2.5309 2.0609-4.5916 4.5953-4.5916h.6651l.0003-8.6342c0-4.9575 3.6811-9.0738 8.4565-9.7537l4.1533-21.2864c.3134-1.605 1.7262-2.771 3.359-2.771l47.9529-.0004c1.6333 0 3.0461 1.1666 3.3596 2.7716l.0271.1394 14.023-14.0224c-10.9377-9.9559-25.4655-16.0328-41.3854-16.0328z" fill="#eceff1"/><path d="m54.7708 107.653.0005 5.3402c0 .4476.0647.8918.1891 1.3186l6.6591-6.6588z" fill="#bac2c6"/><path d="m87.7813 107.653-32.1524 32.1524c9.1246 5.3588 19.7448 8.4338 31.0697 8.4338 33.9332-.0003 61.5408-27.6074 61.5408-61.5407.0001-11.3249-3.0749-21.9453-8.4338-31.0699l-20.8679 20.8679c4.4054.9821 7.7065 4.9224 7.7065 9.6172l.0003 8.6338h.665c2.5341 0 4.595 2.061 4.595 4.592l.0007 3.7212c0 2.5313-2.0616 4.5924-4.5957 4.5923h-5.3407l.0001 5.3402c0 4.4669-3.6313 8.0981-8.098 8.098-4.4665 0-8.0977-3.631-8.0977-8.0977l.0005-5.3405z" fill="#eceff1"/><path d="m109.115 112.993c0 2.6253 2.1341 4.7559 4.7554 4.7559 2.6219 0 4.7557-2.1306 4.7557-4.7556l.0005-5.3405h-9.5118z" fill="#bac2c6"/><path d="m97.3447 98.0896-6.2214 6.2215h16.321 12.8532 7.012c.6894 0 1.253-.5605 1.253-1.25l.0003-3.7218c0-.6893-.5643-1.2495-1.2537-1.2495l-2.3355-.0002z" fill="#ffab91"/><path d="m76.3465 97.6532-9.4543 9.4544c-.0346.0379-.0709.0743-.1093.1093l-10.9754 10.9754c-.0384.0427-.0795.0838-.123.123l-12.1788 12.1789c2.8192 2.7808 5.9048 5.2923 9.2144 7.4923l61.1808-61.181c.0339-.037.0693-.0725.107-.107l23.9787-23.9787c-2.2001-3.3097-4.7116-6.3952-7.4925-9.2145l-16.2549 16.255c-.0237.0252-.0482.0497-.0735.0735l-19.2607 19.2608c-.013.0135-.0262.0267-.0397.0397l-18.41 18.4101c-.0346.0379-.0709.0742-.1088.1088z" fill="#e57373"/><path d="m46.0883 98.0896c-.6924 0-1.2536.5607-1.2536 1.25l.0003 3.7212c0 .6894.5602 1.2503 1.2529 1.2503h7.0116 11.8621l6.2216-6.2213-22.7591-.0002z" fill="#ffab91"/><path d="m50.0951 86.1138.0006 8.6339 24.4298-.0001 15.1447-15.1441-33.0643-.0002c-3.5892 0-6.5108 2.9211-6.5108 6.5105zm16.6516 1.0617c0 .9225-.7451 1.6712-1.6669 1.671h-7.0154c-.9228 0-1.6715-.7483-1.6715-1.671.0007-.9226.7484-1.671 1.6712-1.671l7.0157-.0001c.9219 0 1.6669.7486 1.6669 1.6711z" fill="#ffab91"/><path d="m58.6337 76.2613h34.3788l18.1999-18.1991-.4567-2.3516c-.011-.0454-.0355-.0661-.0808-.0661h-47.9521c-.0454 0-.0703.0209-.0807.0696z" fill="#c8e3f8"/><path d="m107.107 88.3269-6.4207 6.4208 22.6152-.0001.0001-8.6341c0-3.5892-2.9209-6.51-6.5102-6.51l-.9609-.0001-5.901 5.9011 5.4004-.0001c.9259 0 1.6705.7486 1.6705 1.6711.0002.9225-.7451 1.6712-1.6705 1.671h-7.0123c-.4761 0-.906-.1995-1.2106-.5196z" fill="#ffab91"/><path d="m141.69 52.2947c6.2655 9.9791 9.8916 21.7758 9.8916 34.4039.0007 35.7749-29.1079 64.883-64.8821 64.8828-12.6279 0-24.425-3.6266-34.4046-9.8928-.1808-.0737-.3518-.1802-.5032-.3192-4.2308-2.7109-8.1278-5.8991-11.6144-9.4879-.081-.0563-.1581-.1205-.2303-.1927-.0878-.0878-.1637-.1831-.2279-.2837-11.088-11.6463-17.9032-27.3959-17.9032-44.7065 0-35.7783 29.1078-64.8829 64.8829-64.8829 17.317-.0001 33.0716 6.8191 44.719 17.9136.096.0627.1869.1364.2711.221.0686.0681.13.1408.1842.2169 3.5942 3.4904 6.7867 7.3922 9.5006 11.6287.1378.1503.2432.3196.3163.4988zm-128.188 34.4039c.0003 40.3596 32.8366 73.1965 73.1966 73.1965 40.3603-.0003 73.1966-32.8366 73.1966-73.1965.0003-40.36-32.8368-73.1965-73.1959-73.1966-40.3604 0-73.1973 32.8367-73.1973 73.1966z" fill="#e57373"/></g></svg>